<svg width="33" height="26" viewBox="0 0 33 26" fill="none" xmlns="http://www.w3.org/2000/svg">
<path d="M31.8214 0H1.17857C0.526674 0 0 0.528125 0 1.18182V6.09091C0 6.64319 0.447715 7.09091 1 7.09091H32C32.5523 7.09091 33 6.64319 33 6.09091V1.18182C33 0.528125 32.4733 0 31.8214 0ZM0 24.8182C0 25.4719 0.526674 26 1.17857 26H31.8214C32.4733 26 33 25.4719 33 24.8182V11.3409C33 10.7886 32.5523 10.3409 32 10.3409H0.999999C0.447714 10.3409 0 10.7886 0 11.3409V24.8182ZM21.3248 18.0227C21.3248 17.8602 21.4574 17.7273 21.6194 17.7273H27.6964C27.8585 17.7273 27.9911 17.8602 27.9911 18.0227V20.6818C27.9911 20.8443 27.8585 20.9773 27.6964 20.9773H21.6194C21.4574 20.9773 21.3248 20.8443 21.3248 20.6818V18.0227Z" fill="#CB5232" fill-opacity="0.5"/>
</svg>
